<mxfile host="app.diagrams.net" agent="Mozilla/5.0 (Windows NT 10.0; Win64; x64) AppleWebKit/537.36 (KHTML, like Gecko) Chrome/134.0.0.0 Safari/537.36" version="26.1.1">
  <diagram name="Página-1" id="XmmrPeo6AO8t4cO1RTAe">
    <mxGraphModel dx="1434" dy="772" grid="1" gridSize="10" guides="1" tooltips="1" connect="1" arrows="1" fold="1" page="1" pageScale="1" pageWidth="827" pageHeight="1169" math="0" shadow="0">
      <root>
        <mxCell id="0" />
        <mxCell id="1" parent="0" />
        <mxCell id="lY3dCMxPr9Tgazk4Mfbc-11" value="" style="edgeStyle=orthogonalEdgeStyle;rounded=0;orthogonalLoop=1;jettySize=auto;html=1;strokeWidth=10;" edge="1" parent="1" source="lY3dCMxPr9Tgazk4Mfbc-2" target="lY3dCMxPr9Tgazk4Mfbc-6">
          <mxGeometry relative="1" as="geometry" />
        </mxCell>
        <mxCell id="lY3dCMxPr9Tgazk4Mfbc-2" value="Inicio" style="ellipse;whiteSpace=wrap;html=1;fontFamily=Helvetica;fontSize=30;" vertex="1" parent="1">
          <mxGeometry x="306" width="216" height="150" as="geometry" />
        </mxCell>
        <mxCell id="lY3dCMxPr9Tgazk4Mfbc-6" value="custo de fabrica = preço de fabrica&lt;div&gt;Imposto= 45% do valor do preço&lt;/div&gt;&lt;div&gt;distribuição = 28% do valor do preço&lt;/div&gt;" style="shape=parallelogram;perimeter=parallelogramPerimeter;whiteSpace=wrap;html=1;fixedSize=1;fontSize=20;" vertex="1" parent="1">
          <mxGeometry x="119" y="210" width="590" height="70" as="geometry" />
        </mxCell>
        <mxCell id="lY3dCMxPr9Tgazk4Mfbc-12" value="" style="edgeStyle=orthogonalEdgeStyle;rounded=0;orthogonalLoop=1;jettySize=auto;html=1;strokeWidth=10;" edge="1" parent="1">
          <mxGeometry relative="1" as="geometry">
            <mxPoint x="413" y="280" as="sourcePoint" />
            <mxPoint x="413" y="370" as="targetPoint" />
          </mxGeometry>
        </mxCell>
        <mxCell id="lY3dCMxPr9Tgazk4Mfbc-13" style="edgeStyle=orthogonalEdgeStyle;rounded=0;orthogonalLoop=1;jettySize=auto;html=1;entryX=0.476;entryY=0;entryDx=0;entryDy=0;entryPerimeter=0;" edge="1" parent="1">
          <mxGeometry relative="1" as="geometry">
            <mxPoint x="428.2" y="260" as="sourcePoint" />
            <mxPoint x="414.0399999999999" y="260" as="targetPoint" />
          </mxGeometry>
        </mxCell>
        <mxCell id="lY3dCMxPr9Tgazk4Mfbc-14" value="Para_o_consumidor = (custo_de_fabrica + imposto + distribuição)" style="rounded=0;whiteSpace=wrap;html=1;fontSize=20;" vertex="1" parent="1">
          <mxGeometry x="108" y="370" width="610" height="90" as="geometry" />
        </mxCell>
        <mxCell id="lY3dCMxPr9Tgazk4Mfbc-16" value="Fim" style="ellipse;whiteSpace=wrap;html=1;fontSize=30;" vertex="1" parent="1">
          <mxGeometry x="314.5" y="480" width="197" height="140" as="geometry" />
        </mxCell>
      </root>
    </mxGraphModel>
  </diagram>
</mxfile>
